<svg width="632" height="90" xmlns="http://www.w3.org/2000/svg" xmlns:xlink="http://www.w3.org/1999/xlink" xml:space="preserve" overflow="hidden">
	<defs>
		<clipPath id="clip0">
			<rect x="1883" y="1193" width="632" height="90" />
		</clipPath>
	</defs>
	<g clip-path="url(#clip0)" transform="translate(-1883 -1193)">
		<path d="M1901.78 1212 1921.38 1212 1922.11 1212 1976 1212 1960.95 1230.07 1921.49 1230.07 1921.48 1230.12 1920.55 1230.17C1919.53 1230.42 1918.52 1231.07 1917.74 1232.06 1916.19 1234.04 1916.18 1236.63 1917.73 1237.85L1918.68 1238.26 1967.78 1238.26 1952.73 1256.33 1910.38 1256.33 1903.33 1283 1883 1283Z" fill="#000" fill-rule="evenodd" />
		<path d="M2243.78 1212 2263.38 1212 2264.11 1212 2318 1212 2302.95 1230.07 2263.86 1230.07 2263.85 1230.12 2262.92 1230.17C2261.9 1230.42 2260.89 1231.07 2260.11 1232.06 2258.56 1234.04 2258.55 1236.63 2260.1 1237.85L2261.05 1238.26 2309.78 1238.26 2294.73 1256.33 2252.38 1256.33 2245.33 1283 2225 1283Z" fill="#000" fill-rule="evenodd" />
		<path d="M7.66443 0 7.58761 0.0152054 7.32547 0.0152054 7.36234 0.0596836 5.89622 0.349361C5.31747 0.530429 4.75221 0.777076 4.2091 1.09199 2.03668 2.35187 0.629773 4.46644 0.11127 6.86682L0.028062 10.1075 0 10.1155 0.0252301 10.2186 0.0151895 10.6106 0.357598 11.5759 5.14802 31.1398 5.17675 31.1398 5.26593 32.0647C5.62028 33.5365 6.19048 34.9892 6.98755 36.3759 9.64453 40.9984 14.1941 43.794 18.9341 44.2539L19.45 44.2524 19.4833 44.2926 32.4833 44.2926 16.912 70.9998 39.28 70.9998 54.8513 44.2926 84.0002 44.2926 69.0246 26.2298 28.5905 26.2298 27.6665 26.1859C26.655 25.9365 25.6429 25.2918 24.8698 24.311 23.3239 22.3496 23.32 19.7869 24.861 18.587L26.0343 18.078 76.2758 18.078 61.3002 0.0152054 7.79517 0.0152054Z" fill="#000" fill-rule="evenodd" transform="matrix(-1 0 0 1 2049 1212)" />
		<path d="M7.66435 0 7.58758 0.0152054 7.32544 0.0152054 7.36231 0.0596836 5.89619 0.349361C5.31745 0.530429 4.75219 0.777076 4.20908 1.09199 2.03668 2.35187 0.629771 4.46644 0.111269 6.86682L0.0281134 10.1075 0 10.1155 0.0252815 10.2187 0.0151895 10.6106 0.357545 11.5757 5.14799 31.1398 5.17672 31.1398 5.26591 32.0647C5.62026 33.5365 6.19045 34.9892 6.98752 36.3759 9.64449 40.9984 14.194 43.794 18.9341 44.2539L19.4499 44.2524 19.4832 44.2926 32.4832 44.2926 16.9119 70.9998 39.2798 70.9998 54.8511 44.2926 83.9999 44.2926 69.0243 26.2298 28.5903 26.2298 27.6664 26.1859C26.6549 25.9365 25.6428 25.2918 24.8697 24.311 23.3238 22.3496 23.3198 19.7869 24.8609 18.587L26.0341 18.078 76.2754 18.078 61.2999 0.0152054 7.79508 0.0152054Z" fill="#000" fill-rule="evenodd" transform="matrix(-1 0 0 1 2429 1212)" />
		<path d="M2078.45 1212 2136 1212 2120.86 1230.04 2080.45 1230.04 2080.42 1230.16 2079.47 1230.21C2078.43 1230.47 2077.39 1231.13 2076.59 1232.13 2075 1234.15 2075 1236.78 2076.58 1238.01 2076.98 1238.32 2077.44 1238.51 2077.93 1238.6L2078.36 1238.58 2078.35 1238.62 2113.03 1238.62 2097.89 1256.66 2072.65 1256.66 2072.43 1256.67C2071.39 1256.93 2070.34 1257.59 2069.55 1258.6 2067.96 1260.61 2067.95 1263.25 2069.54 1264.48L2070.65 1264.96 2121.31 1264.96 2116.59 1283 2057.7 1283 2057.72 1282.93 2042 1282.93 2060.89 1212.04 2078.42 1212.04Z" fill="#000" fill-rule="evenodd" />
		<path d="M2161.45 1212 2219 1212 2203.86 1230.04 2163.45 1230.04 2163.42 1230.16 2162.47 1230.21C2161.43 1230.47 2160.39 1231.13 2159.59 1232.13 2158 1234.15 2158 1236.78 2159.58 1238.01 2159.98 1238.32 2160.44 1238.51 2160.93 1238.6L2161.36 1238.58 2161.35 1238.62 2196.03 1238.62 2180.89 1256.66 2155.65 1256.66 2155.43 1256.67C2154.39 1256.93 2153.34 1257.59 2152.55 1258.6 2150.96 1260.61 2150.95 1263.25 2152.54 1264.48L2153.65 1264.96 2204.31 1264.96 2199.59 1283 2140.7 1283 2140.72 1282.93 2125 1282.93 2143.89 1212.04 2161.42 1212.04Z" fill="#000" fill-rule="evenodd" />
		<path d="M2457.45 1212 2515 1212 2499.86 1230.04 2459.45 1230.04 2459.42 1230.16 2458.47 1230.21C2457.43 1230.47 2456.39 1231.13 2455.59 1232.13 2454 1234.15 2454 1236.78 2455.58 1238.01 2455.98 1238.32 2456.44 1238.51 2456.93 1238.6L2457.36 1238.58 2457.35 1238.62 2492.03 1238.62 2476.89 1256.66 2451.65 1256.66 2451.43 1256.67C2450.39 1256.93 2449.34 1257.59 2448.55 1258.6 2446.96 1260.61 2446.95 1263.25 2448.54 1264.48L2449.65 1264.96 2500.31 1264.96 2495.59 1283 2436.7 1283 2436.72 1282.93 2421 1282.93 2439.89 1212.04 2457.42 1212.04Z" fill="#000" fill-rule="evenodd" />
		<path d="M2312.03 1260.95 2317.83 1260.95 2325.31 1260.95 2330.02 1260.95 2325.47 1276.97 2325.37 1276.97 2324.63 1279.02C2323.61 1280.82 2322.05 1282.07 2320.36 1282.65L2319.26 1282.8 2319.23 1282.9 2318.5 1282.9 2317.77 1283 2317.45 1282.9 2305.95 1282.9ZM2345 1193 2345 1208.29 2344.68 1209.5 2344.52 1209.5 2344.52 1209.51 2344.42 1209.49 2332.96 1252.39 2340.12 1252.39 2339.3 1256.35 2305 1256.35 2305.82 1252.39 2312.72 1252.39 2313.29 1250.42C2313.92 1249.71 2319.02 1246 2323.99 1242.07L2325.93 1240.48 2315.94 1240.48 2316.15 1238.55 2328.99 1229.11 2319 1229.11 2319.2 1227.17 2332.4 1217.48 2322.52 1217.48 2323.25 1215.1C2327.21 1205.67 2334.48 1197.99 2343.59 1193.56Z" fill="#FFBA00" fill-rule="evenodd" />
	</g>
</svg>
